PathFileType	4	(X/Y/Z)	/Users/itak/Documents/Research/Walk-IL/dataset/trc/00537_00009.trc
DataRate	CameraRate	NumFrames	NumMarkers	Units	OrigDataRate	OrigDataStartFrame	OrigNumFrames
100.000000	100.000000	4	53	mm	100.000000	95	765
Frame#	Time	RPSI			LPSI			L3			STRN			T10			C7			CLAV			RBAK			LBAK			LSHO			LUPA			LAEL			LAOL			LWTS			LWPS			LFRA			LIFD			LHPS			LHTS			RSHO			RUPA			RAEL			RAOL			RWTS			RWPS			RFRA			RIFD			RHTS			RHPS			RBHD			LFHD			RFHD			LBHD			LHIP			RHIP			RASI			LASI			LKNE			LTHI			LANK			LTIP			LTOE			LMT1			LMT5			LHEE			RKNE			RTHI			RANK			RTIP			RTOE			RMT1			RMT5			RHEE			
		X1	Y1	Z1	X2	Y2	Z2	X3	Y3	Z3	X4	Y4	Z4	X5	Y5	Z5	X6	Y6	Z6	X7	Y7	Z7	X8	Y8	Z8	X9	Y9	Z9	X10	Y10	Z10	X11	Y11	Z11	X12	Y12	Z12	X13	Y13	Z13	X14	Y14	Z14	X15	Y15	Z15	X16	Y16	Z16	X17	Y17	Z17	X18	Y18	Z18	X19	Y19	Z19	X20	Y20	Z20	X21	Y21	Z21	X22	Y22	Z22	X23	Y23	Z23	X24	Y24	Z24	X25	Y25	Z25	X26	Y26	Z26	X27	Y27	Z27	X28	Y28	Z28	X29	Y29	Z29	X30	Y30	Z30	X31	Y31	Z31	X32	Y32	Z32	X33	Y33	Z33	X34	Y34	Z34	X35	Y35	Z35	X36	Y36	Z36	X37	Y37	Z37	X38	Y38	Z38	X39	Y39	Z39	X40	Y40	Z40	X41	Y41	Z41	X42	Y42	Z42	X43	Y43	Z43	X44	Y44	Z44	X45	Y45	Z45	X46	Y46	Z46	X47	Y47	Z47	X48	Y48	Z48	X49	Y49	Z49	X50	Y50	Z50	X51	Y51	Z51	X52	Y52	Z52	X53	Y53	Z53	

96	0.9500000000000001	-769.4945068359375	1022.423461914062	450.8532104492188	-755.3970947265625	1026.3369140625	317.721923828125	-758.0294189453125	1109.336547851562	380.5530090332031	-531.8582763671875	1296.769775390625	389.0074157714844	-772.7323608398438	1234.91015625	378.4272766113281	-729.7371215820312	1508.102783203125	390.3389587402344	-553.3306274414062	1407.685791015625	387.5995483398438	-802.0736083984375	1383.130737304688	475.773681640625	-757.4864501953125	1454.964599609375	296.2378540039062	-654.652099609375	1479.780517578125	219.9116821289062	-655.8839721679688	1352.750122070312	140.3259429931641	-623.990966796875	1129.623413085938	126.3008880615234	-716.4331665039062	1119.798461914062	167.1700134277344	-532.2593994140625	889.158935546875	188.1320190429688	-568.4486083984375	864.00048828125	112.7203674316406	-598.37841796875	1043.765869140625	124.622200012207	-530.5239868164062	718.527099609375	186.3356475830078	-559.4607543945312	804.834716796875	122.8794631958008	-512.6705322265625	811.9406127929688	171.5877685546875	-674.3630981445312	1470.305297851562	547.8499755859375	-693.1228637695312	1405.131469726562	615.3876342773438	-686.7329711914062	1114.823120117188	661.779541015625	-740.9260864257812	1096.865844726562	636.9590454101562	-553.3267211914062	895.132080078125	613.259521484375	-592.4268188476562	874.820068359375	682.404052734375	-673.6278076171875	1059.327270507812	668.0111083984375	-541.4151000976562	721.6753540039062	617.01611328125	-522.6791381835938	803.9468994140625	626.7809448242188	-573.7146606445312	800.586669921875	680.177978515625	-670.1031494140625	1687.818359375	448.1278686523438	-497.9205932617188	1716.617065429688	335.2310180664062	-534.5696411132812	1717.71435546875	475.6759033203125	-620.1915283203125	1685.895141601562	289.7478637695312	-621.6952514648438	940.7830810546875	199.63134765625	-661.615234375	942.6336669921875	582.6946411132812	-568.5790405273438	969.2205200195312	532.5411987304688	-545.81005859375	961.3232421875	257.011474609375	-625.4366455078125	493.4032592773438	258.6971740722656	-611.8338012695312	658.4315185546875	221.1463775634766	-710.9937133789062	34.02134323120117	260.9967041015625	-692.9085083007812	251.5558624267578	249.4641876220703	-503.6674499511719	39.19579696655273	328.4623718261719	-578.1093139648438	41.22943496704102	360.1953430175781	-587.4567260742188	34.51438903808594	252.5074615478516	-783.6838989257812	36.45905685424805	313.2417297363281	-654.9110717773438	496.2421569824219	533.9953002929688	-631.364013671875	785.1178588867188	581.5523681640625	-739.02587890625	37.45102310180664	508.9047241210938	-658.0274658203125	354.5509033203125	519.9088745117188	-515.679443359375	39.99118423461914	484.9653015136719	-577.5476684570312	38.74288558959961	439.2977294921875	-607.436279296875	38.23445892333984	539.147705078125	-789.6580200195312	29.33822441101074	449.4386901855469	
97	0.96	-769.4051513671875	1022.416320800781	450.7258605957031	-755.2633056640625	1026.315795898438	317.5144653320312	-757.857177734375	1109.335571289062	380.3099975585938	-531.7113037109375	1296.793579101562	388.7423095703125	-772.6533203125	1234.927490234375	378.2753295898438	-729.5234985351562	1508.139038085938	390.1307983398438	-553.149658203125	1407.676513671875	387.4219055175781	-801.9021606445312	1383.164184570312	475.6001586914062	-757.2869873046875	1454.992065429688	296.0111999511719	-654.5130004882812	1479.797729492188	219.6716918945312	-655.637451171875	1352.769653320312	140.0244445800781	-623.9072265625	1129.631469726562	126.1100997924805	-716.32275390625	1119.826782226562	166.9418487548828	-532.1923217773438	889.1419677734375	187.8989105224609	-568.5047607421875	863.87890625	112.5454788208008	-598.3128662109375	1043.729614257812	124.4115142822266	-530.7265625	718.4320678710938	186.1843719482422	-559.4376831054688	804.8126220703125	122.6516036987305	-512.7267456054688	811.9091186523438	171.4309692382812	-674.112060546875	1470.3583984375	547.6396484375	-692.92041015625	1405.17041015625	615.2212524414062	-686.5482177734375	1114.883544921875	661.7051391601562	-740.688720703125	1096.914306640625	636.8585815429688	-552.9605712890625	895.220703125	613.0243530273438	-592.1214599609375	874.864990234375	682.2151489257812	-673.370361328125	1059.344848632812	667.8737182617188	-541.2180786132812	721.739990234375	616.9171752929688	-522.3873901367188	803.962646484375	626.6029663085938	-573.4928588867188	800.5904541015625	680.0213623046875	-669.9078369140625	1687.791748046875	447.9167175292969	-497.71435546875	1716.5791015625	335.04150390625	-534.2957763671875	1717.711547851562	475.441162109375	-619.906982421875	1685.873046875	289.5507507324219	-621.5511474609375	940.79052734375	199.4745635986328	-661.3401489257812	942.6517333984375	582.421875	-568.3851928710938	969.24560546875	532.3148803710938	-545.8095703125	961.29248046875	256.9433288574219	-625.3093872070312	493.3935241699219	258.5987548828125	-611.602294921875	658.4468994140625	220.9644317626953	-710.9849853515625	34.02805328369141	261.0032348632812	-692.8663330078125	251.5381927490234	249.4376373291016	-503.6676330566406	39.19470977783203	328.4628295898438	-578.1054077148438	41.22890472412109	360.1936645507812	-587.4578247070312	34.51469802856445	252.5056915283203	-783.6813354492188	36.46487045288086	313.2448120117188	-654.7780151367188	496.2376098632812	533.8841552734375	-631.1765747070312	785.125244140625	581.3854370117188	-739.0228881835938	37.45827865600586	508.902587890625	-657.8868408203125	354.5442199707031	519.815185546875	-515.6756591796875	39.98649215698242	484.9682922363281	-577.544677734375	38.73126602172852	439.2950744628906	-607.43310546875	38.23454284667969	539.1458740234375	-789.659912109375	29.34735488891602	449.4351501464844	
98	0.97	-769.3165283203125	1022.407958984375	450.58984375	-755.148193359375	1026.2890625	317.3124084472656	-757.6931762695312	1109.338745117188	380.0617980957031	-531.5648193359375	1296.817260742188	388.484619140625	-772.5734252929688	1234.948364257812	378.1133117675781	-729.3024291992188	1508.177124023438	389.9091796875	-552.9808349609375	1407.6640625	387.2521057128906	-801.7313232421875	1383.201049804688	475.4244995117188	-757.0804443359375	1455.0166015625	295.7682800292969	-654.361328125	1479.811645507812	219.4028167724609	-655.432373046875	1352.76513671875	139.7418518066406	-623.8460693359375	1129.637084960938	125.9323425292969	-716.1870727539062	1119.859985351562	166.6813659667969	-532.1344604492188	889.1135864257812	187.683837890625	-568.6000366210938	863.7759399414062	112.3655700683594	-598.254638671875	1043.711181640625	124.2072525024414	-530.8692016601562	718.33056640625	185.9793548583984	-559.427734375	804.7980346679688	122.4234848022461	-512.7725830078125	811.8801879882812	171.2817687988281	-673.8594360351562	1470.419189453125	547.4166870117188	-692.70458984375	1405.207397460938	615.039794921875	-686.3424072265625	1114.939453125	661.6082153320312	-740.460205078125	1096.965087890625	636.7484741210938	-552.628173828125	895.2971801757812	612.7974853515625	-591.8363647460938	874.9061279296875	682.0303344726562	-673.114990234375	1059.365234375	667.7273559570312	-541.0584716796875	721.78759765625	616.8189086914062	-522.1181640625	803.98388671875	626.3899536132812	-573.2845458984375	800.5997924804688	679.8558349609375	-669.697021484375	1687.772094726562	447.6868896484375	-497.4965209960938	1716.535766601562	334.8485717773438	-534.0214233398438	1717.713012695312	475.1968078613281	-619.6309204101562	1685.852783203125	289.3599548339844	-621.3632202148438	940.7807006835938	199.2729644775391	-661.0638427734375	942.6588134765625	582.1341552734375	-568.1897583007812	969.2760009765625	532.080322265625	-545.7904663085938	961.2625122070312	256.8548583984375	-625.1697387695312	493.3873901367188	258.4954528808594	-611.3844604492188	658.458740234375	220.7928161621094	-710.9772338867188	34.03559112548828	261.0101318359375	-692.8200073242188	251.5216064453125	249.4086456298828	-503.6676330566406	39.19341278076172	328.4630432128906	-578.100341796875	41.23067855834961	360.1924743652344	-587.4586791992188	34.51469802856445	252.5038299560547	-783.6782836914062	36.46902084350586	313.2480163574219	-654.6377563476562	496.2329406738281	533.7657470703125	-631.0156860351562	785.1367797851562	581.2296142578125	-739.0186157226562	37.46437072753906	508.8999938964844	-657.7437133789062	354.5402221679688	519.71923828125	-515.6727294921875	39.9820442199707	484.9732360839844	-577.5425415039062	38.71958160400391	439.2908630371094	-607.4255981445312	38.23499298095703	539.1405639648438	-789.6633911132812	29.35701370239258	449.4309692382812	
99	0.98	-769.2247924804688	1022.399047851562	450.4394836425781	-755.0536499023438	1026.257080078125	317.1174926757812	-757.544921875	1109.349731445312	379.8158569335938	-531.4170532226562	1296.837646484375	388.238525390625	-772.4909057617188	1234.973754882812	377.9398193359375	-729.077880859375	1508.214721679688	389.6769409179688	-552.8204345703125	1407.649658203125	387.0818176269531	-801.5594482421875	1383.242797851562	475.2464294433594	-756.873046875	1455.038330078125	295.515869140625	-654.1972045898438	1479.82080078125	219.1081085205078	-655.278076171875	1352.742309570312	139.4838562011719	-623.8076171875	1129.64013671875	125.7645645141602	-716.0350341796875	1119.90087890625	166.3936462402344	-532.086181640625	889.0795288085938	187.4836578369141	-568.7247924804688	863.6995849609375	112.1755142211914	-598.2012939453125	1043.715454101562	124.0088424682617	-530.9439086914062	718.2330322265625	185.7240142822266	-559.4359130859375	804.7919921875	122.1985931396484	-512.8060302734375	811.8550415039062	171.1338958740234	-673.612548828125	1470.482055664062	547.1821899414062	-692.4749145507812	1405.242065429688	614.8432006835938	-686.1138916015625	1114.989990234375	661.483642578125	-740.2410278320312	1097.018798828125	636.6279296875	-552.339111328125	895.3600463867188	612.5875854492188	-591.5693969726562	874.94482421875	681.8490600585938	-672.8618774414062	1059.391967773438	667.5654296875	-540.9192504882812	721.8206176757812	616.709716796875	-521.8814086914062	804.0109252929688	626.150146484375	-573.0775756835938	800.6171875	679.6821899414062	-669.4716796875	1687.759643554688	447.4402465820312	-497.2627258300781	1716.48583984375	334.6484069824219	-533.7506713867188	1717.717407226562	474.9432983398438	-619.37255859375	1685.834594726562	289.1743469238281	-621.1329345703125	940.7499389648438	199.0243530273438	-660.8056640625	942.657470703125	581.8467407226562	-567.999755859375	969.3095092773438	531.841796875	-545.7468872070312	961.2341918945312	256.7402648925781	-625.02001953125	493.3844909667969	258.3901062011719	-611.1830444335938	658.4646606445312	220.6319732666016	-710.97119140625	34.04339218139648	261.0172119140625	-692.7705688476562	251.5059661865234	249.3779602050781	-503.6673583984375	39.19171142578125	328.4630432128906	-578.0944213867188	41.23426055908203	360.1922302246094	-587.4594116210938	34.51419830322266	252.5024261474609	-783.673828125	36.47171020507812	313.251220703125	-654.4945678710938	496.2288208007812	533.643798828125	-630.876708984375	785.1524658203125	581.0829467773438	-739.0137939453125	37.46895599365234	508.8970336914062	-657.6023559570312	354.5393371582031	519.6232299804688	-515.6702880859375	39.97755813598633	484.9796752929688	-577.5405883789062	38.70880889892578	439.2854309082031	-607.416748046875	38.23571014404297	539.1341552734375	-789.6681518554688	29.36663627624512	449.4258728027344	
